<svg xmlns="http://www.w3.org/2000/svg" viewBox="0 0 92.81 68.16"><defs><style>.cls-1{fill:#fcfcfd;}</style></defs><g id="Layer_2" data-name="Layer 2"><g id="Layer_1-2" data-name="Layer 1"><path class="cls-1" d="M89.68,5.13l-3.29.38v.72l5.12.66-.09.67-4.4.3-.08.84,5.51.65-.07.85H87.07l-.09.7c1.59,1.43,4.19-.29,5.83,1l-.14.59-5.7.33,0,.88h5.4c-.17,1.53-.17,1.53-2.22,1.53H87.05L87,16.1l4.94.45c-.5,1.58-1.76.95-2.65,1.06s-1.89.12-2.84.17l0,.8L91,19a36.65,36.65,0,0,1-4.06,3.32,45.07,45.07,0,0,1-5.41,2.51c-2.65,1.11-3.31,1.72-3,4.6A30.2,30.2,0,0,1,77.05,41c-1,3.38-2.35,6.64-3.48,10-.62,1.82-1.1,3.68-1.64,5.53-.19.64-.39,1.29-.55,1.82a6.19,6.19,0,0,1,.79,1.48,47.75,47.75,0,0,1,.91,5.76,8,8,0,0,1,.61,1.25,7.85,7.85,0,0,1-2.36,1.34c-.55.16-1.25-.21-1.88-.39a10.68,10.68,0,0,1-1.21-.51,7.5,7.5,0,0,1,.84-.85,2.78,2.78,0,0,1,.77-.25c-1.18-.08-2.4.11-3.3-.33-.62-.3-.79-1.5-1.26-2.21a18.68,18.68,0,0,1-1.54-3c-.08-.25.92-.84,1.37-1.24-2.07.29-2.38-1.14-2.28-2.87q.25-4.43.55-8.85c.08-1.12.56-2-.69-3.19-.61-.57.23-2.86.64-4.3.11-.36,1.14-.44,2.19-.8,1.18-3.6,2.55-7.59,3.76-11.63.47-1.57-.87-1.94-2-2.19-6.21-1.35-12.45-2.58-18.64-4-5.49-1.29-10.92-2.86-16.4-4.21a6.75,6.75,0,0,0-2.74.17c-.74.14-1.42.59-2.16.77-1.37.35-1.83-.26-1.39-1.55s1.27-2.53,1.25-3.79a29.24,29.24,0,0,0-1.08-5.19c-.11-.53-.3-1.3-.05-1.57A1.65,1.65,0,0,1,27.6,6c2.76,1.74,5.3.59,8-.18C49.31,2,63.12-.89,77.43.25A32.61,32.61,0,0,1,85,1.78c1.79.6,3.34,1.88,5,2.85Z"/><path class="cls-1" d="M2.46,26.68l-1.2-1.42L6.43,18.7l1.65.89,2.52-3c2.79,2.11,5.51,4.05,8.11,6.14,2.33,1.88,4.46,4,6.8,5.85,1.91,1.51,4,2.76,6,4.2s1.81,1.38-.53,4.5a18.87,18.87,0,0,1,.66,2.27,4.93,4.93,0,0,0,3.18,3.95c9.27,4.18,16.57,10.94,23.56,18.1,1.32,1.36.73,2.19-.13,3.38s-1.71,1.63-3.16.77c-8.51-5-16.68-10.47-22.87-18.35C30.8,45.56,29.28,44.65,27,45a6.94,6.94,0,0,1-1.86-.24l-2.54,2.95c-4.92-4.23-10.15-7.81-15.22-12.37-2.52-.8-4.3-3.77-7.37-5.22Z"/></g></g></svg>